<svg xmlns="http://www.w3.org/2000/svg" viewBox="0 0 339 506" width="339" height="506" preserveAspectRatio="xMidYMid meet" style="width: 100%;height: 100%;transform: translate3d(0px, 0px, 0px);"><defs><clipPath id="__lottie_element_106"><rect width="339" height="506" x="0" y="0"></rect></clipPath><clipPath id="__lottie_element_108"><path d="M0,0 L338,0 L338,507 L0,507z"></path></clipPath></defs><g clip-path="url(#__lottie_element_106)"><g transform="matrix(1,0,0,1,913.2899780273438,-11.359999656677246)" opacity="1" style="display: block;"><g opacity="1" transform="matrix(1,0,0,1,-743.7899780273438,264.2099914550781)"><path stroke-linecap="butt" stroke-linejoin="miter" fill-opacity="0" stroke-miterlimit="4" stroke="rgb(255,255,255)" stroke-opacity="1" stroke-width="0.5" d=" M169,-252.5 C169,-252.5 169,252.5 169,252.5 C169,252.5 -169,252.5 -169,252.5 C-169,252.5 -169,-252.5 -169,-252.5 C-169,-252.5 169,-252.5 169,-252.5z"></path></g></g><g clip-path="url(#__lottie_element_108)" transform="matrix(1,0,0,1,0.5,-0.5)" opacity="1" style="display: block;"><g transform="matrix(1,0,0,1,1136.75,748.8499755859375)" opacity="1" style="display: block;"><g opacity="1" transform="matrix(1,0,0,1,0,0)"><path stroke-linecap="butt" stroke-linejoin="miter" fill-opacity="0" stroke-miterlimit="4" stroke="rgb(255,255,255)" stroke-opacity="1" stroke-width="0.5" d=" M-1010,-980 C-1010,-980 -1010,-581.3499755859375 -1010,-581.3499755859375 C-1010,-581.3499755859375 -1010,-180 -1010,-180"></path></g></g><g transform="matrix(0.0000020070715436304454,1,-1,0.0000020070715436304454,-453.24798583984375,1178.8511962890625)" opacity="1" style="display: block;"><g opacity="1" transform="matrix(1,0,0,1,0,0)"><path stroke-linecap="butt" stroke-linejoin="miter" fill-opacity="0" stroke-miterlimit="4" stroke="rgb(255,255,255)" stroke-opacity="1" stroke-width="0.5" d=" M-1010,-980 C-1010,-980 -1010,-180 -1010,-180"></path></g></g><g transform="matrix(-0.7071067690849304,0.7071067690849304,-0.7071067690849304,-0.7071067690849304,-997.5498046875,472.9059143066406)" opacity="1" style="display: block;"><g opacity="1" transform="matrix(1,0,0,1,0,0)"><path stroke-linecap="butt" stroke-linejoin="miter" fill-opacity="0" stroke-miterlimit="4" stroke="rgb(255,255,255)" stroke-opacity="1" stroke-width="0.5" d=" M-1010,-980 C-1010,-980 -1010,-180 -1010,-180"></path></g></g></g></g></svg>